<mxfile host="app.diagrams.net" modified="2024-01-07T06:10:35.256Z" agent="Mozilla/5.0 (Macintosh; Intel Mac OS X 10_15_7) AppleWebKit/537.36 (KHTML, like Gecko) Chrome/120.0.0.0 Safari/537.36" etag="rPG9vIUCfpRFcKbUSBGV" version="22.1.16" type="device">
  <diagram name="第 1 页" id="sX1N_5NHBL0WOgzaaYDo">
    <mxGraphModel dx="544" dy="292" grid="1" gridSize="10" guides="1" tooltips="1" connect="1" arrows="1" fold="1" page="1" pageScale="1" pageWidth="827" pageHeight="1169" math="0" shadow="0">
      <root>
        <mxCell id="0" />
        <mxCell id="1" parent="0" />
        <mxCell id="XKo8p1vkMD3jEGbeFyGv-40" value="" style="rounded=0;whiteSpace=wrap;html=1;strokeColor=none;" vertex="1" parent="1">
          <mxGeometry x="100" y="150" width="660" height="270" as="geometry" />
        </mxCell>
        <mxCell id="XKo8p1vkMD3jEGbeFyGv-1" value="&lt;font style=&quot;font-size: 20px;&quot;&gt;Cache&lt;/font&gt;" style="rounded=0;whiteSpace=wrap;html=1;fillColor=#f5f5f5;fontColor=#333333;strokeColor=#666666;shadow=1;points=[[0,0.19,0,0,0],[0,0.31,0,0,0],[0,0.43,0,0,0],[0,0.56,0,0,0],[0,0.69,0,0,0],[0,0.81,0,0,0],[1,0.19,0,0,0],[1,0.31,0,0,0],[1,0.43,0,0,0],[1,0.56,0,0,0],[1,0.69,0,0,0],[1,0.81,0,0,0]];" vertex="1" parent="1">
          <mxGeometry x="370" y="180" width="130" height="220" as="geometry" />
        </mxCell>
        <mxCell id="XKo8p1vkMD3jEGbeFyGv-7" value="&lt;font style=&quot;font-size: 20px;&quot;&gt;Main&lt;br&gt;Memory&lt;br&gt;&lt;/font&gt;" style="rounded=0;whiteSpace=wrap;html=1;fillColor=#f5f5f5;fontColor=#333333;strokeColor=#666666;shadow=1;points=[[0,0.19,0,0,0],[0,0.31,0,0,0],[0,0.43,0,0,0],[0,0.56,0,0,0],[0,0.69,0,0,0],[0,0.81,0,0,0],[1,0.19,0,0,0],[1,0.31,0,0,0],[1,0.43,0,0,0],[1,0.56,0,0,0],[1,0.69,0,0,0],[1,0.81,0,0,0]];" vertex="1" parent="1">
          <mxGeometry x="600" y="180" width="130" height="220" as="geometry" />
        </mxCell>
        <mxCell id="XKo8p1vkMD3jEGbeFyGv-8" value="&lt;span style=&quot;font-size: 20px;&quot;&gt;ARMv3 Processor&lt;/span&gt;" style="rounded=0;whiteSpace=wrap;html=1;fillColor=#f5f5f5;fontColor=#333333;strokeColor=#666666;shadow=1;points=[[0,0.19,0,0,0],[0,0.31,0,0,0],[0,0.43,0,0,0],[0,0.56,0,0,0],[0,0.69,0,0,0],[0,0.81,0,0,0],[1,0.19,0,0,0],[1,0.31,0,0,0],[1,0.43,0,0,0],[1,0.56,0,0,0],[1,0.69,0,0,0],[1,0.81,0,0,0]];" vertex="1" parent="1">
          <mxGeometry x="140" y="180" width="130" height="220" as="geometry" />
        </mxCell>
        <mxCell id="XKo8p1vkMD3jEGbeFyGv-9" style="edgeStyle=orthogonalEdgeStyle;rounded=0;orthogonalLoop=1;jettySize=auto;html=1;exitX=1;exitY=0.19;exitDx=0;exitDy=0;exitPerimeter=0;entryX=0;entryY=0.19;entryDx=0;entryDy=0;entryPerimeter=0;" edge="1" parent="1" source="XKo8p1vkMD3jEGbeFyGv-8" target="XKo8p1vkMD3jEGbeFyGv-1">
          <mxGeometry relative="1" as="geometry" />
        </mxCell>
        <mxCell id="XKo8p1vkMD3jEGbeFyGv-21" value="cpu_op" style="edgeLabel;html=1;align=center;verticalAlign=middle;resizable=0;points=[];labelBackgroundColor=none;" vertex="1" connectable="0" parent="XKo8p1vkMD3jEGbeFyGv-9">
          <mxGeometry x="0.2341" relative="1" as="geometry">
            <mxPoint x="-15" y="-8" as="offset" />
          </mxGeometry>
        </mxCell>
        <mxCell id="XKo8p1vkMD3jEGbeFyGv-10" style="edgeStyle=orthogonalEdgeStyle;rounded=0;orthogonalLoop=1;jettySize=auto;html=1;exitX=1;exitY=0.31;exitDx=0;exitDy=0;exitPerimeter=0;entryX=0;entryY=0.31;entryDx=0;entryDy=0;entryPerimeter=0;" edge="1" parent="1" source="XKo8p1vkMD3jEGbeFyGv-8" target="XKo8p1vkMD3jEGbeFyGv-1">
          <mxGeometry relative="1" as="geometry" />
        </mxCell>
        <mxCell id="XKo8p1vkMD3jEGbeFyGv-22" value="cpu_valid" style="edgeLabel;html=1;align=center;verticalAlign=middle;resizable=0;points=[];labelBackgroundColor=none;" vertex="1" connectable="0" parent="XKo8p1vkMD3jEGbeFyGv-10">
          <mxGeometry x="-0.0848" y="1" relative="1" as="geometry">
            <mxPoint y="-6" as="offset" />
          </mxGeometry>
        </mxCell>
        <mxCell id="XKo8p1vkMD3jEGbeFyGv-11" style="edgeStyle=orthogonalEdgeStyle;rounded=0;orthogonalLoop=1;jettySize=auto;html=1;exitX=1;exitY=0.43;exitDx=0;exitDy=0;exitPerimeter=0;entryX=0;entryY=0.43;entryDx=0;entryDy=0;entryPerimeter=0;" edge="1" parent="1" source="XKo8p1vkMD3jEGbeFyGv-8" target="XKo8p1vkMD3jEGbeFyGv-1">
          <mxGeometry relative="1" as="geometry" />
        </mxCell>
        <mxCell id="XKo8p1vkMD3jEGbeFyGv-23" value="cache_addr" style="edgeLabel;html=1;align=center;verticalAlign=middle;resizable=0;points=[];labelBackgroundColor=none;" vertex="1" connectable="0" parent="XKo8p1vkMD3jEGbeFyGv-11">
          <mxGeometry x="0.1778" relative="1" as="geometry">
            <mxPoint x="-13" y="-7" as="offset" />
          </mxGeometry>
        </mxCell>
        <mxCell id="XKo8p1vkMD3jEGbeFyGv-34" value="32" style="edgeLabel;html=1;align=center;verticalAlign=middle;resizable=0;points=[];labelBackgroundColor=none;fontSize=6;" vertex="1" connectable="0" parent="XKo8p1vkMD3jEGbeFyGv-11">
          <mxGeometry x="0.0075" y="-1" relative="1" as="geometry">
            <mxPoint y="2" as="offset" />
          </mxGeometry>
        </mxCell>
        <mxCell id="XKo8p1vkMD3jEGbeFyGv-12" style="edgeStyle=orthogonalEdgeStyle;rounded=0;orthogonalLoop=1;jettySize=auto;html=1;exitX=1;exitY=0.56;exitDx=0;exitDy=0;exitPerimeter=0;entryX=0;entryY=0.56;entryDx=0;entryDy=0;entryPerimeter=0;" edge="1" parent="1" source="XKo8p1vkMD3jEGbeFyGv-8" target="XKo8p1vkMD3jEGbeFyGv-1">
          <mxGeometry relative="1" as="geometry" />
        </mxCell>
        <mxCell id="XKo8p1vkMD3jEGbeFyGv-24" value="cpu_write_data" style="edgeLabel;html=1;align=center;verticalAlign=middle;resizable=0;points=[];labelBackgroundColor=none;" vertex="1" connectable="0" parent="XKo8p1vkMD3jEGbeFyGv-12">
          <mxGeometry x="-0.0848" y="-2" relative="1" as="geometry">
            <mxPoint x="1" y="-9" as="offset" />
          </mxGeometry>
        </mxCell>
        <mxCell id="XKo8p1vkMD3jEGbeFyGv-35" value="32" style="edgeLabel;html=1;align=center;verticalAlign=middle;resizable=0;points=[];labelBackgroundColor=none;fontSize=6;" vertex="1" connectable="0" parent="XKo8p1vkMD3jEGbeFyGv-12">
          <mxGeometry x="-0.005" relative="1" as="geometry">
            <mxPoint y="3" as="offset" />
          </mxGeometry>
        </mxCell>
        <mxCell id="XKo8p1vkMD3jEGbeFyGv-13" style="edgeStyle=orthogonalEdgeStyle;rounded=0;orthogonalLoop=1;jettySize=auto;html=1;exitX=0;exitY=0.69;exitDx=0;exitDy=0;exitPerimeter=0;entryX=1;entryY=0.69;entryDx=0;entryDy=0;entryPerimeter=0;" edge="1" parent="1" source="XKo8p1vkMD3jEGbeFyGv-1" target="XKo8p1vkMD3jEGbeFyGv-8">
          <mxGeometry relative="1" as="geometry" />
        </mxCell>
        <mxCell id="XKo8p1vkMD3jEGbeFyGv-25" value="cache_ready" style="edgeLabel;html=1;align=center;verticalAlign=middle;resizable=0;points=[];labelBackgroundColor=none;" vertex="1" connectable="0" parent="XKo8p1vkMD3jEGbeFyGv-13">
          <mxGeometry x="0.0128" y="-1" relative="1" as="geometry">
            <mxPoint y="-6" as="offset" />
          </mxGeometry>
        </mxCell>
        <mxCell id="XKo8p1vkMD3jEGbeFyGv-14" style="edgeStyle=orthogonalEdgeStyle;rounded=0;orthogonalLoop=1;jettySize=auto;html=1;exitX=0;exitY=0.81;exitDx=0;exitDy=0;exitPerimeter=0;entryX=1;entryY=0.81;entryDx=0;entryDy=0;entryPerimeter=0;" edge="1" parent="1" source="XKo8p1vkMD3jEGbeFyGv-1" target="XKo8p1vkMD3jEGbeFyGv-8">
          <mxGeometry relative="1" as="geometry" />
        </mxCell>
        <mxCell id="XKo8p1vkMD3jEGbeFyGv-26" value="cache_data" style="edgeLabel;html=1;align=center;verticalAlign=middle;resizable=0;points=[];labelBackgroundColor=none;" vertex="1" connectable="0" parent="XKo8p1vkMD3jEGbeFyGv-14">
          <mxGeometry x="-0.0528" y="1" relative="1" as="geometry">
            <mxPoint x="-3" y="-8" as="offset" />
          </mxGeometry>
        </mxCell>
        <mxCell id="XKo8p1vkMD3jEGbeFyGv-36" value="32" style="edgeLabel;html=1;align=center;verticalAlign=middle;resizable=0;points=[];fontSize=6;labelBackgroundColor=none;" vertex="1" connectable="0" parent="XKo8p1vkMD3jEGbeFyGv-14">
          <mxGeometry x="-0.0125" relative="1" as="geometry">
            <mxPoint x="-1" y="3" as="offset" />
          </mxGeometry>
        </mxCell>
        <mxCell id="XKo8p1vkMD3jEGbeFyGv-15" style="edgeStyle=orthogonalEdgeStyle;rounded=0;orthogonalLoop=1;jettySize=auto;html=1;exitX=1;exitY=0.19;exitDx=0;exitDy=0;exitPerimeter=0;entryX=0;entryY=0.19;entryDx=0;entryDy=0;entryPerimeter=0;" edge="1" parent="1" source="XKo8p1vkMD3jEGbeFyGv-1" target="XKo8p1vkMD3jEGbeFyGv-7">
          <mxGeometry relative="1" as="geometry" />
        </mxCell>
        <mxCell id="XKo8p1vkMD3jEGbeFyGv-27" value="cache_op" style="edgeLabel;html=1;align=center;verticalAlign=middle;resizable=0;points=[];labelBackgroundColor=none;" vertex="1" connectable="0" parent="XKo8p1vkMD3jEGbeFyGv-15">
          <mxGeometry x="0.0522" relative="1" as="geometry">
            <mxPoint x="-4" y="-7" as="offset" />
          </mxGeometry>
        </mxCell>
        <mxCell id="XKo8p1vkMD3jEGbeFyGv-16" style="edgeStyle=orthogonalEdgeStyle;rounded=0;orthogonalLoop=1;jettySize=auto;html=1;exitX=1;exitY=0.31;exitDx=0;exitDy=0;exitPerimeter=0;entryX=0;entryY=0.31;entryDx=0;entryDy=0;entryPerimeter=0;" edge="1" parent="1" source="XKo8p1vkMD3jEGbeFyGv-1" target="XKo8p1vkMD3jEGbeFyGv-7">
          <mxGeometry relative="1" as="geometry" />
        </mxCell>
        <mxCell id="XKo8p1vkMD3jEGbeFyGv-28" value="cache_valid" style="edgeLabel;html=1;align=center;verticalAlign=middle;resizable=0;points=[];labelBackgroundColor=none;" vertex="1" connectable="0" parent="XKo8p1vkMD3jEGbeFyGv-16">
          <mxGeometry x="-0.1132" y="-2" relative="1" as="geometry">
            <mxPoint x="4" y="-8" as="offset" />
          </mxGeometry>
        </mxCell>
        <mxCell id="XKo8p1vkMD3jEGbeFyGv-17" style="edgeStyle=orthogonalEdgeStyle;rounded=0;orthogonalLoop=1;jettySize=auto;html=1;exitX=1;exitY=0.43;exitDx=0;exitDy=0;exitPerimeter=0;entryX=0;entryY=0.43;entryDx=0;entryDy=0;entryPerimeter=0;" edge="1" parent="1" source="XKo8p1vkMD3jEGbeFyGv-1" target="XKo8p1vkMD3jEGbeFyGv-7">
          <mxGeometry relative="1" as="geometry" />
        </mxCell>
        <mxCell id="XKo8p1vkMD3jEGbeFyGv-29" value="mem_addr" style="edgeLabel;html=1;align=center;verticalAlign=middle;resizable=0;points=[];labelBackgroundColor=none;" vertex="1" connectable="0" parent="XKo8p1vkMD3jEGbeFyGv-17">
          <mxGeometry x="-0.2579" y="-2" relative="1" as="geometry">
            <mxPoint x="12" y="-9" as="offset" />
          </mxGeometry>
        </mxCell>
        <mxCell id="XKo8p1vkMD3jEGbeFyGv-37" value="32" style="edgeLabel;html=1;align=center;verticalAlign=middle;resizable=0;points=[];fontSize=6;labelBackgroundColor=none;" vertex="1" connectable="0" parent="XKo8p1vkMD3jEGbeFyGv-17">
          <mxGeometry x="-0.0226" y="-1" relative="1" as="geometry">
            <mxPoint y="1" as="offset" />
          </mxGeometry>
        </mxCell>
        <mxCell id="XKo8p1vkMD3jEGbeFyGv-18" style="edgeStyle=orthogonalEdgeStyle;rounded=0;orthogonalLoop=1;jettySize=auto;html=1;exitX=1;exitY=0.56;exitDx=0;exitDy=0;exitPerimeter=0;entryX=0;entryY=0.56;entryDx=0;entryDy=0;entryPerimeter=0;" edge="1" parent="1" source="XKo8p1vkMD3jEGbeFyGv-1" target="XKo8p1vkMD3jEGbeFyGv-7">
          <mxGeometry relative="1" as="geometry" />
        </mxCell>
        <mxCell id="XKo8p1vkMD3jEGbeFyGv-30" value="cache_write_data" style="edgeLabel;html=1;align=center;verticalAlign=middle;resizable=0;points=[];labelBackgroundColor=none;" vertex="1" connectable="0" parent="XKo8p1vkMD3jEGbeFyGv-18">
          <mxGeometry x="-0.2372" relative="1" as="geometry">
            <mxPoint x="10" y="-6" as="offset" />
          </mxGeometry>
        </mxCell>
        <mxCell id="XKo8p1vkMD3jEGbeFyGv-38" value="32" style="edgeLabel;html=1;align=center;verticalAlign=middle;resizable=0;points=[];fontSize=6;labelBackgroundColor=none;" vertex="1" connectable="0" parent="XKo8p1vkMD3jEGbeFyGv-18">
          <mxGeometry x="0.0032" y="-1" relative="1" as="geometry">
            <mxPoint x="-1" y="2" as="offset" />
          </mxGeometry>
        </mxCell>
        <mxCell id="XKo8p1vkMD3jEGbeFyGv-19" style="edgeStyle=orthogonalEdgeStyle;rounded=0;orthogonalLoop=1;jettySize=auto;html=1;exitX=0;exitY=0.69;exitDx=0;exitDy=0;exitPerimeter=0;entryX=1;entryY=0.69;entryDx=0;entryDy=0;entryPerimeter=0;" edge="1" parent="1" source="XKo8p1vkMD3jEGbeFyGv-7" target="XKo8p1vkMD3jEGbeFyGv-1">
          <mxGeometry relative="1" as="geometry" />
        </mxCell>
        <mxCell id="XKo8p1vkMD3jEGbeFyGv-31" value="mem_ready" style="edgeLabel;html=1;align=center;verticalAlign=middle;resizable=0;points=[];labelBackgroundColor=none;" vertex="1" connectable="0" parent="XKo8p1vkMD3jEGbeFyGv-19">
          <mxGeometry x="0.4749" y="-1" relative="1" as="geometry">
            <mxPoint x="25" y="-6" as="offset" />
          </mxGeometry>
        </mxCell>
        <mxCell id="XKo8p1vkMD3jEGbeFyGv-20" style="edgeStyle=orthogonalEdgeStyle;rounded=0;orthogonalLoop=1;jettySize=auto;html=1;exitX=0;exitY=0.81;exitDx=0;exitDy=0;exitPerimeter=0;entryX=1;entryY=0.81;entryDx=0;entryDy=0;entryPerimeter=0;" edge="1" parent="1" source="XKo8p1vkMD3jEGbeFyGv-7" target="XKo8p1vkMD3jEGbeFyGv-1">
          <mxGeometry relative="1" as="geometry" />
        </mxCell>
        <mxCell id="XKo8p1vkMD3jEGbeFyGv-32" value="mem_data" style="edgeLabel;html=1;align=center;verticalAlign=middle;resizable=0;points=[];labelBackgroundColor=none;" vertex="1" connectable="0" parent="XKo8p1vkMD3jEGbeFyGv-20">
          <mxGeometry x="0.2786" y="1" relative="1" as="geometry">
            <mxPoint x="13" y="-7" as="offset" />
          </mxGeometry>
        </mxCell>
        <mxCell id="XKo8p1vkMD3jEGbeFyGv-39" value="32" style="edgeLabel;html=1;align=center;verticalAlign=middle;resizable=0;points=[];fontSize=6;labelBackgroundColor=none;" vertex="1" connectable="0" parent="XKo8p1vkMD3jEGbeFyGv-20">
          <mxGeometry x="0.0161" y="1" relative="1" as="geometry">
            <mxPoint y="2" as="offset" />
          </mxGeometry>
        </mxCell>
      </root>
    </mxGraphModel>
  </diagram>
</mxfile>
